<svg width="585" height="386" viewBox="0 0 585 386" fill="none" xmlns="http://www.w3.org/2000/svg">
<path d="M300.155 385.828C406.818 385.828 493.286 299.498 493.286 193.004C493.286 86.5101 406.818 0.179672 300.155 0.179672C193.491 0.179672 107.023 86.5101 107.023 193.004C107.023 299.498 193.491 385.828 300.155 385.828Z" fill="#005DC6"/>
<path opacity="0.63" d="M300.154 0.0663912C293.98 0.0663912 287.917 0.396569 281.91 0.946867C278.933 1.22202 271.327 26.7008 270.225 30.0576C264.294 46.2992 261.073 63.4021 260.689 80.685C260.469 89.0538 262.332 97.3463 266.113 104.819C269.893 112.291 275.473 118.71 282.351 123.498C295.358 132.193 309.909 130.927 325.287 130.982C345.846 130.982 366.515 127.35 386.798 130.597C402.653 133.095 418.004 138.111 432.27 145.455C449.598 154.312 463.907 168.101 473.388 185.077C478.566 195.626 481.512 207.128 482.041 218.865C482.537 224.753 482.702 230.641 483.088 236.474C484.099 240.754 484.69 245.122 484.852 249.516C493.715 220.673 495.677 190.156 490.581 160.418C485.485 130.679 473.472 102.549 455.509 78.2885C437.546 54.0275 414.132 34.3122 387.151 20.7269C360.169 7.14155 330.372 0.0651581 300.154 0.0663912V0.0663912Z" fill="#247EE2"/>
<path opacity="0.63" d="M111.268 233.172C119.849 273.699 141.29 310.385 172.407 337.785C203.523 365.184 242.659 381.838 284.006 385.274C294.147 386.154 276.951 328.043 274.195 322.76C257.329 290.898 227.951 268.281 205.904 240.215C198.933 232.418 194.916 222.43 194.55 211.985C195.818 168.732 274.966 190.303 272.211 144.629C271.208 134.749 266.359 125.658 258.707 119.315C243.439 106.053 223.432 100.77 204.857 94.0562C196.074 91.2021 187.714 87.1858 179.999 82.1147C177.739 80.5189 157.181 63.2945 159.771 60.543C138.272 83.2341 122.624 110.805 114.174 140.879C105.724 170.953 104.727 202.627 111.268 233.172V233.172Z" fill="#247EE2"/>
<path opacity="0.47" d="M216.874 215.726C217.259 228.383 232.362 237.738 243.33 241.15C245.124 241.809 247.041 242.066 248.946 241.905C250.85 241.743 252.696 241.166 254.353 240.214C260.196 236.307 258.377 229.979 258.708 224.201C259.038 218.423 261.188 210.003 257.55 204.775C249.668 193.439 221.944 196.246 217.535 209.728C216.947 211.67 216.723 213.703 216.874 215.726V215.726Z" fill="#154B86"/>
<path opacity="0.63" d="M171.398 49.5939C177.363 55.7479 185.046 59.9665 193.445 61.7004C201.162 63.5164 210.752 63.2963 215.492 56.8028C220.232 50.3093 217.587 42.2199 220.618 35.5063C222.375 32.4747 224.758 29.8516 227.609 27.8115C230.46 25.7714 233.714 24.3612 237.153 23.6749C243.973 22.3136 250.587 20.0754 256.83 17.0163C262.035 13.8187 265.939 8.8874 267.854 3.09373C231.95 9.19263 198.509 25.3142 171.398 49.5939V49.5939Z" fill="#247EE2"/>
<path opacity="0.25" d="M403.224 158.828C399.518 158.864 395.826 159.269 392.201 160.039C380.846 162.57 364.201 172.366 374.177 186.398C378.392 191.345 384 194.912 390.272 196.634C396.535 198.312 402.313 201.442 407.137 205.769C415.074 214.188 413.862 227.781 408.791 238.401C403.72 249.022 395.618 257.497 390.327 267.787C385.035 278.078 383.106 291.615 390.327 300.805C394.119 304.741 399.052 307.389 404.431 308.376C409.811 309.363 415.365 308.64 420.311 306.308C430.127 301.404 438.304 293.757 443.846 284.296C456.248 266.544 462.869 245.407 462.806 223.763C462.645 213.056 460.028 202.528 455.155 192.988C450.281 183.448 443.283 175.151 434.696 168.734C425.44 162.351 414.473 158.899 403.224 158.828V158.828Z" fill="#154B86"/>
<path opacity="0.47" d="M199.896 257.277C191.393 251 183.561 243.863 176.526 235.981C173.018 232.024 170.425 227.345 168.93 222.277C167.434 217.208 167.073 211.873 167.872 206.65C171.4 190.636 188.266 182.161 202.155 173.632C208.455 170.037 213.862 165.072 217.974 159.104C219.973 156.082 221.134 152.585 221.337 148.969C221.54 145.354 220.779 141.749 219.132 138.523C214.226 130.378 203.478 128.562 194.384 125.756C184.601 122.598 175.548 117.52 167.758 110.82C159.969 104.119 153.598 95.9325 149.022 86.7398C147.67 83.8031 146.493 80.7896 145.495 77.7149C126.858 102.564 114.513 131.543 109.512 162.182C104.511 192.822 107.002 224.214 116.772 253.685C126.543 283.157 143.304 309.833 165.628 331.442C187.951 353.051 215.176 368.953 244.982 377.792C248.423 372.113 251.005 365.956 252.643 359.522C254.456 349.77 253.87 339.723 250.934 330.247C243.053 301.191 223.155 276.538 199.896 257.277Z" fill="#368BEA"/>
<path opacity="0.47" d="M304.122 0.066391C300.209 7.88062 297.177 16.2451 295.193 21.0327C288.331 37.565 283.644 54.9155 281.249 72.6507C279.904 79.4113 280.321 86.4035 282.461 92.9567C284.353 96.8496 287.1 100.267 290.497 102.953C293.894 105.64 297.854 107.527 302.083 108.475C310.553 110.327 319.28 110.699 327.878 109.576C346.838 108.035 365.744 105.173 384.759 105.228C403.912 104.556 422.909 108.88 439.876 117.775C453.947 126.533 465.915 138.275 474.931 152.169C482.04 162.412 488.166 173.301 493.23 184.691C491.202 135.655 470.502 89.2408 435.356 54.928C400.21 20.6152 353.27 0.992161 304.122 0.066391V0.066391Z" fill="#368BEA"/>
<path opacity="0.47" d="M409.342 195.037C422.184 205.273 425.05 224.258 421.082 240.217C417.94 253.149 410.995 265.476 411.105 278.738C411.003 280.204 411.308 281.671 411.987 282.975C414.027 286.277 419.042 285.616 422.57 284.021C440.152 275.986 449.081 255.515 449.633 236.2C450.363 221.284 446.053 206.555 437.396 194.377C433.545 188.992 428.618 184.461 422.926 181.071C417.235 177.68 410.902 175.503 404.326 174.676C398.814 174.401 395.011 176.107 396.389 182.436C397.767 188.764 404.932 191.571 409.342 195.037Z" fill="#368BEA"/>
<g opacity="0.32">
<path opacity="0.32" d="M382.608 219.305C381.892 232.512 368.719 236.199 363.979 246.82C361.664 252.323 363.979 260.413 371.364 259.697C389.829 257.936 405.427 234.604 398.923 217.104C398.363 215.165 397.125 213.491 395.433 212.387C393.741 211.283 391.709 210.823 389.705 211.09C387.702 211.356 385.861 212.332 384.518 213.84C383.175 215.348 382.419 217.288 382.388 219.305H382.608Z" fill="#368BEA"/>
</g>
<g opacity="0.32">
<path opacity="0.32" d="M362.656 272.517C350.255 283.523 350.751 304.6 359.129 317.917C366.239 329.363 383.491 342.185 396.002 331.234C397.405 329.744 398.186 327.776 398.186 325.731C398.186 323.686 397.405 321.718 396.002 320.228C390.16 313.735 380.845 313.735 376.27 304.82C371.696 295.905 373.68 284.789 371.751 274.884C371.477 273.983 370.976 273.167 370.296 272.515C369.616 271.863 368.779 271.396 367.867 271.158C366.955 270.921 365.996 270.921 365.084 271.159C364.172 271.397 363.336 271.865 362.656 272.517V272.517Z" fill="#368BEA"/>
</g>
<g opacity="0.32">
<path opacity="0.32" d="M333.884 289.52C332.177 290.917 331.009 292.862 330.577 295.023C329.144 302.067 329.585 314.284 337.743 317.035C338.769 317.344 339.87 317.301 340.87 316.912C341.869 316.523 342.708 315.811 343.254 314.889C346.782 309.386 344.026 303.388 343.254 297.665C342.703 293.758 342.813 287.154 336.695 288.365C335.68 288.521 334.716 288.917 333.884 289.52V289.52Z" fill="#368BEA"/>
</g>
<g opacity="0.47">
<path opacity="0.47" d="M238.311 40.9524C235.054 44.012 232.756 47.9501 231.697 52.2885C229.934 65.8259 228.335 70.8336 213.949 72.8147C213.229 72.9928 212.551 73.3144 211.958 73.7604C211.365 74.2064 210.868 74.7674 210.497 75.4098C210.127 76.0523 209.89 76.7629 209.801 77.499C209.712 78.2351 209.774 78.9815 209.981 79.6934C214.17 91.5248 231.587 85.1964 238.807 79.6934C246.028 74.1904 247.736 64.7803 247.351 55.5353C247.185 50.8027 246.855 33.0831 238.311 40.9524Z" fill="#154B86"/>
</g>
<path opacity="0.47" d="M250.659 215.672C249.904 211.309 247.546 207.384 244.045 204.666C241.692 203.332 238.955 202.835 236.283 203.255C233.61 203.674 231.158 204.987 229.329 206.977C212.022 224.697 256.502 243.242 250.659 215.672Z" fill="#368BEA"/>
<g opacity="0.47">
<path opacity="0.47" d="M205.628 155.525C196.369 151.233 184.188 155.91 176.251 161.523C168.314 167.136 158.723 176.546 161.92 186.837C162.471 188.12 163.425 189.19 164.638 189.885C165.851 190.579 167.257 190.862 168.644 190.689C176.251 189.533 181.046 181.609 187.164 177.482C197.802 170.273 200.117 171.979 206.841 165.761C207.652 165.119 208.285 164.281 208.68 163.326C209.075 162.371 209.218 161.331 209.097 160.305C208.975 159.279 208.593 158.301 207.986 157.464C207.378 156.628 206.567 155.96 205.628 155.525V155.525Z" fill="#154B86"/>
</g>
<g opacity="0.47">
<path opacity="0.47" d="M145.55 208.409C136.345 228.99 148.141 251.333 164.786 264.43C176.967 274.005 188.211 280.333 196.754 293.76C205.297 307.188 206.069 322.926 215.439 335.363C215.98 336.251 216.74 336.986 217.648 337.495C218.555 338.005 219.579 338.272 220.62 338.272C221.661 338.272 222.685 338.005 223.592 337.495C224.5 336.986 225.26 336.251 225.801 335.363C239.305 315.497 224.203 287.817 209.762 272.629C200.55 263.868 190.139 256.457 178.841 250.617C161.81 240.437 158.282 226.734 152.715 209.07C151.778 206.153 147.204 204.832 145.55 208.134V208.409Z" fill="#154B86"/>
</g>
<g opacity="0.47">
<path opacity="0.47" d="M172.225 301.297C174.32 305.864 176.745 310.377 178.674 314.999C181.099 320.502 181.595 326.005 186.942 329.692C188.586 330.645 190.5 331.027 192.385 330.778C194.27 330.529 196.019 329.664 197.359 328.317C203.256 321.713 200.886 312.908 196.036 306.305C191.757 300.724 186.043 296.407 179.501 293.813C178.46 293.268 177.272 293.07 176.111 293.246C174.949 293.423 173.875 293.966 173.044 294.795C172.213 295.625 171.67 296.698 171.493 297.858C171.316 299.017 171.514 300.203 172.06 301.242L172.225 301.297Z" fill="#154B86"/>
</g>
<g opacity="0.47">
<path opacity="0.47" d="M319.058 19.8755C313.934 23.1738 309.574 27.5265 306.271 32.6424C301.251 38.8313 297.725 46.0907 295.967 53.8584C294.208 61.6262 294.264 69.6938 296.129 77.4366C297.591 82.1151 300.147 86.3789 303.587 89.8754C307.027 93.3718 311.251 96.0004 315.91 97.5438C320.569 99.0871 325.529 99.5008 330.379 98.7507C335.23 98.0006 339.833 96.1083 343.806 93.2302C344.729 92.4511 345.435 91.4464 345.854 90.3141C346.273 89.1818 346.391 87.9605 346.197 86.7691C346.002 85.5777 345.502 84.4568 344.745 83.5157C343.988 82.5745 343 81.8452 341.876 81.3988C338.417 79.8336 334.65 79.0626 330.853 79.1425C327.118 79.1866 323.441 78.2165 320.215 76.336C318.549 75.0134 317.192 73.343 316.24 71.4419C315.288 69.5407 314.763 67.4548 314.704 65.3301C313.601 52.288 321.207 39.0809 327.932 28.5151C328.457 27.4721 328.694 26.3078 328.617 25.1427C328.541 23.9777 328.153 22.8543 327.496 21.8889C326.838 20.9235 325.934 20.1512 324.877 19.6521C323.819 19.1529 322.648 18.9451 321.483 19.05C320.639 19.2081 319.823 19.486 319.058 19.8755V19.8755Z" fill="#005DC6"/>
</g>
<g opacity="0.47">
<path opacity="0.47" d="M340.995 40.6763C339.071 41.0971 337.255 41.9108 335.662 43.0662C334.068 44.2216 332.731 45.6937 331.735 47.3899C330.43 49.9533 329.961 52.8606 330.396 55.7033C330.831 58.5461 332.148 61.1813 334.16 63.2385C339.231 67.5858 349.318 65.6598 349.814 58.0657C349.814 58.9462 349.483 59.8266 349.262 60.7071C350.53 55.0941 350.585 38.9153 340.995 40.6763Z" fill="#005DC6"/>
</g>
<g style="mix-blend-mode:screen" opacity="0.38">
<g style="mix-blend-mode:screen" opacity="0.38">
<path d="M364.312 221.178C378.808 221.178 378.808 198.781 364.312 198.781C349.816 198.781 349.871 221.178 364.312 221.178Z" fill="#59A7FF"/>
</g>
<g style="mix-blend-mode:screen" opacity="0.38">
<path d="M341.878 238.348C343.559 238.348 345.171 237.682 346.36 236.495C347.548 235.308 348.216 233.698 348.216 232.02C348.216 230.342 347.548 228.732 346.36 227.545C345.171 226.358 343.559 225.691 341.878 225.691C340.197 225.691 338.584 226.358 337.396 227.545C336.207 228.732 335.539 230.342 335.539 232.02C335.539 233.698 336.207 235.308 337.396 236.495C338.584 237.682 340.197 238.348 341.878 238.348Z" fill="#59A7FF"/>
</g>
<g style="mix-blend-mode:screen" opacity="0.38">
<path d="M330.581 266.797C332.068 266.654 333.449 265.964 334.453 264.86C335.458 263.756 336.014 262.318 336.014 260.826C336.014 259.335 335.458 257.897 334.453 256.793C333.449 255.689 332.068 254.998 330.581 254.856C329.094 254.998 327.714 255.689 326.71 256.793C325.705 257.897 325.148 259.335 325.148 260.826C325.148 262.318 325.705 263.756 326.71 264.86C327.714 265.964 329.094 266.654 330.581 266.797V266.797Z" fill="#59A7FF"/>
</g>
<g style="mix-blend-mode:screen" opacity="0.38">
<path d="M306.217 281.487C306.948 281.487 307.649 281.198 308.165 280.682C308.682 280.166 308.973 279.466 308.973 278.736C308.973 278.006 308.682 277.306 308.165 276.79C307.649 276.274 306.948 275.984 306.217 275.984C305.486 275.984 304.785 276.274 304.268 276.79C303.751 277.306 303.461 278.006 303.461 278.736C303.461 279.466 303.751 280.166 304.268 280.682C304.785 281.198 305.486 281.487 306.217 281.487Z" fill="#59A7FF"/>
</g>
<g style="mix-blend-mode:screen" opacity="0.38">
<path d="M362.217 359.962C364.41 359.962 366.512 359.092 368.063 357.544C369.613 355.996 370.484 353.897 370.484 351.708C370.484 349.518 369.613 347.419 368.063 345.871C366.512 344.323 364.41 343.453 362.217 343.453C360.024 343.453 357.921 344.323 356.371 345.871C354.82 347.419 353.949 349.518 353.949 351.708C353.949 353.897 354.82 355.996 356.371 357.544C357.921 359.092 360.024 359.962 362.217 359.962Z" fill="#59A7FF"/>
</g>
<g style="mix-blend-mode:screen" opacity="0.38">
<path d="M384.32 359.635C385.782 359.635 387.184 359.055 388.218 358.023C389.251 356.991 389.832 355.591 389.832 354.132C389.832 352.672 389.251 351.273 388.218 350.241C387.184 349.209 385.782 348.629 384.32 348.629C382.859 348.629 381.457 349.209 380.423 350.241C379.389 351.273 378.809 352.672 378.809 354.132C378.809 355.591 379.389 356.991 380.423 358.023C381.457 359.055 382.859 359.635 384.32 359.635Z" fill="#59A7FF"/>
</g>
<g style="mix-blend-mode:screen" opacity="0.38">
<path d="M337.357 370.198C337.848 370.117 338.293 369.866 338.615 369.488C338.937 369.11 339.113 368.63 339.113 368.134C339.113 367.638 338.937 367.158 338.615 366.78C338.293 366.402 337.848 366.151 337.357 366.07C336.867 366.151 336.421 366.402 336.1 366.78C335.778 367.158 335.602 367.638 335.602 368.134C335.602 368.63 335.778 369.11 336.1 369.488C336.421 369.866 336.867 370.117 337.357 370.198V370.198Z" fill="#59A7FF"/>
</g>
<g style="mix-blend-mode:screen" opacity="0.38">
<path d="M385.423 149.529C386.388 149.415 387.278 148.952 387.923 148.227C388.569 147.501 388.925 146.565 388.925 145.595C388.925 144.625 388.569 143.688 387.923 142.963C387.278 142.238 386.388 141.774 385.423 141.66C384.459 141.774 383.569 142.238 382.924 142.963C382.278 143.688 381.922 144.625 381.922 145.595C381.922 146.565 382.278 147.501 382.924 148.227C383.569 148.952 384.459 149.415 385.423 149.529Z" fill="#59A7FF"/>
</g>
<g style="mix-blend-mode:screen" opacity="0.38">
<path d="M403.556 150.847C404.799 150.847 405.99 150.354 406.869 149.477C407.747 148.6 408.241 147.41 408.241 146.17C408.241 144.929 407.747 143.739 406.869 142.862C405.99 141.985 404.799 141.492 403.556 141.492C402.314 141.492 401.122 141.985 400.243 142.862C399.365 143.739 398.871 144.929 398.871 146.17C398.871 147.41 399.365 148.6 400.243 149.477C401.122 150.354 402.314 150.847 403.556 150.847V150.847Z" fill="#59A7FF"/>
</g>
<g style="mix-blend-mode:screen" opacity="0.38">
<path d="M272.264 71.9363C273.404 71.9363 274.498 71.484 275.304 70.6791C276.11 69.8741 276.563 68.7823 276.563 67.6439C276.563 66.5056 276.11 65.4138 275.304 64.6088C274.498 63.8039 273.404 63.3516 272.264 63.3516C271.124 63.3516 270.03 63.8039 269.224 64.6088C268.418 65.4138 267.965 66.5056 267.965 67.6439C267.965 68.7823 268.418 69.8741 269.224 70.6791C270.03 71.484 271.124 71.9363 272.264 71.9363Z" fill="#59A7FF"/>
</g>
<g style="mix-blend-mode:screen" opacity="0.38">
<path d="M269.455 88.7184C270.697 88.7184 271.889 88.2256 272.767 87.3484C273.646 86.4712 274.139 85.2815 274.139 84.0409C274.139 82.8003 273.646 81.6106 272.767 80.7334C271.889 79.8562 270.697 79.3634 269.455 79.3634C268.212 79.3634 267.02 79.8562 266.142 80.7334C265.263 81.6106 264.77 82.8003 264.77 84.0409C264.77 85.2815 265.263 86.4712 266.142 87.3484C267.02 88.2256 268.212 88.7184 269.455 88.7184V88.7184Z" fill="#59A7FF"/>
</g>
<g style="mix-blend-mode:screen" opacity="0.38">
<path d="M275.13 108.803C276.759 108.775 278.312 108.117 279.464 106.967C280.615 105.817 281.275 104.266 281.303 102.64C281.261 101.019 280.598 99.475 279.449 98.3281C278.3 97.1812 276.754 96.5184 275.13 96.4766C273.493 96.4766 271.923 97.126 270.765 98.2818C269.607 99.4377 268.957 101.005 268.957 102.64C268.957 104.275 269.607 105.842 270.765 106.998C271.923 108.154 273.493 108.803 275.13 108.803Z" fill="#59A7FF"/>
</g>
<g style="mix-blend-mode:screen" opacity="0.38">
<path d="M292.22 107.597H291.944C290.916 106.605 289.543 106.051 288.113 106.051C286.684 106.051 285.31 106.605 284.283 107.597V107.597C283.477 108.407 282.93 109.436 282.71 110.556C282.49 111.676 282.607 112.836 283.046 113.889C283.485 114.943 284.227 115.843 285.178 116.476C286.129 117.109 287.246 117.447 288.389 117.447C289.532 117.447 290.649 117.109 291.6 116.476C292.551 115.843 293.293 114.943 293.732 113.889C294.171 112.836 294.288 111.676 294.068 110.556C293.848 109.436 293.301 108.407 292.495 107.597H292.22Z" fill="#59A7FF"/>
</g>
</g>
<path style="mix-blend-mode:multiply" opacity="0.51" d="M300.155 385.828C406.818 385.828 493.286 299.498 493.286 193.004C493.286 86.5101 406.818 0.179672 300.155 0.179672C193.491 0.179672 107.023 86.5101 107.023 193.004C107.023 299.498 193.491 385.828 300.155 385.828Z" fill="url(#paint0_linear_3_5297)"/>
<g style="mix-blend-mode:multiply" opacity="0.07">
<path d="M300.155 385.828C326.918 385.473 353.313 379.562 377.664 368.47C402.014 357.378 423.786 341.349 441.595 321.401C459.405 301.454 472.862 278.024 481.111 252.603C489.36 227.182 492.221 200.325 489.511 173.74C486.801 147.155 478.58 121.424 465.37 98.183C452.161 74.9421 434.252 54.6999 412.783 38.7435C391.313 22.787 366.753 11.4656 340.664 5.4991C314.575 -0.467411 287.528 -0.94846 261.243 4.08656C296.234 7.9604 329.63 20.7934 358.194 41.3417C371.009 50.5335 382.619 61.2932 392.753 73.3691C409.288 93.0697 422.13 116.788 424.39 142.376C426.65 167.965 416.894 195.425 395.839 210.228C369.603 228.663 328.982 226.737 312.171 254.252C301.974 270.761 304.896 292.773 295.636 310.272C284.612 331.569 258.597 340.098 235.007 344.281C218.548 347.341 201.797 348.541 185.07 347.858C218.322 372.583 258.695 385.904 300.155 385.828V385.828Z" fill="#005DC6"/>
</g>
<g style="mix-blend-mode:multiply" opacity="0.21">
<path d="M300.155 385.826C347.919 386.314 394.166 369.092 429.943 337.494C465.721 305.896 488.485 262.169 493.828 214.777C499.172 167.386 486.715 119.701 458.869 80.9518C431.023 42.2029 389.769 15.1464 343.091 5.01961C344.511 6.14436 346.067 7.08719 347.721 7.82613C385.97 26.2955 417.339 56.439 437.287 93.8927C448.381 114.513 455.522 137.021 458.342 160.259C460.507 172.65 459.249 185.397 454.704 197.129C443.35 221.727 412.594 229.046 389.721 243.629C385.227 246.257 381.443 249.941 378.697 254.36C373.792 263.109 376.548 273.95 375.555 283.911C373.847 301.74 360.123 316.158 345.131 326.008C298.171 356.935 234.896 354.844 183.692 331.511C170.887 325.591 158.638 318.537 147.094 310.435C165.105 333.882 188.278 352.877 214.819 365.95C241.361 379.023 270.559 385.824 300.155 385.826V385.826Z" fill="#005DC6"/>
</g>
<g style="mix-blend-mode:overlay" opacity="0.28">
<path d="M300.154 0.453605C249.854 0.339612 201.513 19.9121 165.501 54.9725C129.488 90.0329 108.672 137.789 107.519 187.995C106.584 229.38 118.819 269.994 142.463 303.998C135.628 275.658 129.786 246.437 133.699 217.601C137.613 188.766 153.211 159.985 179.447 147.273C212.076 131.369 251.816 143.476 286.815 133.681C306.658 128.178 325.398 115.466 346.012 118.382C351.459 119.66 356.982 120.598 362.547 121.189C365.379 121.428 368.218 120.804 370.688 119.399C373.158 117.994 375.143 115.874 376.381 113.32C379.027 105.781 371.751 98.2966 371.531 90.3173C371.531 78.706 385.09 72.3225 396.664 71.1119C419.296 68.8626 442.004 74.5647 460.876 87.2356C443.946 61.9203 421.325 40.9053 394.817 25.8668C368.31 10.8283 338.649 2.18235 308.201 0.618698C305.555 0.508638 302.855 0.453605 300.154 0.453605Z" fill="#70B2FF"/>
</g>
<g style="mix-blend-mode:screen" opacity="0.58">
<path d="M300.156 0.0672637C262.634 -0.0454869 225.894 10.7691 194.435 31.1867C162.976 51.6042 138.163 80.7383 123.036 115.021C107.909 149.304 103.124 187.247 109.267 224.203C115.41 261.16 132.214 295.526 157.622 323.092C131.082 289.853 116.3 248.781 115.583 206.278C114.865 163.775 128.251 122.229 153.654 88.1149C163.66 104.454 179.757 116.155 198.404 120.644C207.637 122.867 217.218 123.252 226.601 121.778C235.983 120.304 244.982 116.999 253.085 112.053C261.189 107.106 268.236 100.615 273.827 92.9485C279.417 85.2825 283.44 76.5921 285.667 67.3737C287.893 58.1553 288.279 48.5893 286.802 39.222C285.326 29.8546 282.016 20.8693 277.062 12.7791C308.809 7.49376 341.377 10.2233 371.798 20.7192C402.22 31.2151 429.527 49.1437 451.233 72.8717C433.165 50.1634 410.195 31.8218 384.035 19.2155C357.876 6.60916 329.203 0.0636209 300.156 0.0672637V0.0672637Z" fill="#005DC6"/>
</g>
<path style="mix-blend-mode:screen" opacity="0.32" d="M475.482 112.106C476.569 156.937 462.068 200.761 434.447 236.124C406.825 271.487 367.787 296.205 323.973 306.076C280.158 315.948 234.271 310.361 194.116 290.268C153.961 270.174 122.016 236.814 103.715 195.861C104.371 224.598 111.412 252.831 124.329 278.52C137.246 304.209 155.718 326.713 178.408 344.406C201.099 362.099 227.442 374.538 255.535 380.827C283.628 387.115 312.769 387.095 340.854 380.768C368.938 374.441 395.264 361.965 417.93 344.241C440.596 326.517 459.036 303.988 471.918 278.281C484.8 252.574 491.802 224.331 492.418 195.593C493.034 166.855 487.25 138.339 475.482 112.106V112.106Z" fill="url(#paint1_linear_3_5297)"/>
<path style="mix-blend-mode:screen" opacity="0.32" d="M377.265 14.3211C407.987 46.954 426.46 89.1904 429.553 133.869C432.645 178.548 420.167 222.92 394.234 259.462C368.3 296.004 330.507 322.468 287.262 334.366C244.017 346.264 197.982 342.865 156.961 324.744C176.707 345.625 200.848 361.871 227.644 372.311C254.439 382.75 283.221 387.123 311.913 385.114C340.606 383.105 368.495 374.764 393.568 360.692C418.642 346.62 440.275 327.169 456.909 303.741C473.542 280.312 484.762 253.49 489.757 225.209C494.753 196.928 493.4 167.893 485.798 140.197C478.195 112.501 464.531 86.8341 445.792 65.0478C427.052 43.2616 403.704 25.8987 377.431 14.211L377.265 14.3211Z" fill="url(#paint2_linear_3_5297)"/>
<path style="mix-blend-mode:overlay" opacity="0.43" d="M251.211 183.264C297.694 183.264 335.375 145.642 335.375 99.2337C335.375 52.8249 297.694 15.2032 251.211 15.2032C204.729 15.2032 167.047 52.8249 167.047 99.2337C167.047 145.642 204.729 183.264 251.211 183.264Z" fill="url(#paint3_radial_3_5297)"/>
<path opacity="0.78" d="M121.795 261.682C120.747 259.646 119.865 257.5 118.928 255.409C39.1185 304.66 4.55984 336.137 0.536272 350.17C0.274368 350.994 0.274368 351.878 0.536272 352.701V353.197C0.81186 353.802 2.13468 354.297 2.68585 354.462C12.7172 357.764 64.5276 358.59 308.918 230.425C456.027 153.384 556.34 79.2034 583.513 48.8269C584.151 47.9832 584.532 46.9739 584.611 45.9197C584.69 44.8654 584.463 43.8109 583.957 42.8821C583.451 41.9534 582.688 41.1897 581.759 40.6825C580.83 40.1754 579.774 39.9461 578.718 40.0222C558.49 43.2689 518.695 55.4305 461.208 79.1483C462.034 80.6341 462.971 82.1199 463.798 83.6057C511.254 64.3453 542.34 56.0909 545.923 62.5844C553.088 76.1767 446.712 146.175 308.036 218.979C169.361 291.783 51.4648 339.659 44.2995 326.067C40.3862 318.638 70.7008 294.205 121.795 261.682Z" fill="url(#paint4_linear_3_5297)"/>
<defs>
<linearGradient id="paint0_linear_3_5297" x1="163.574" y1="56.6402" x2="436.301" y2="329.802" gradientUnits="userSpaceOnUse">
<stop stop-color="white"/>
<stop offset="0.09" stop-color="#EBEBF6"/>
<stop offset="0.54" stop-color="#8B8FCE"/>
<stop offset="0.85" stop-color="#4F55B4"/>
<stop offset="1" stop-color="#383EAA"/>
</linearGradient>
<linearGradient id="paint1_linear_3_5297" x1="279.731" y1="115.122" x2="343.457" y2="381.143" gradientUnits="userSpaceOnUse">
<stop offset="0.24" stop-color="white"/>
<stop offset="0.92" stop-color="white"/>
<stop offset="1" stop-color="white"/>
</linearGradient>
<linearGradient id="paint2_linear_3_5297" x1="233.974" y1="144.058" x2="458.359" y2="298.779" gradientUnits="userSpaceOnUse">
<stop offset="0.24" stop-color="white"/>
<stop offset="0.39" stop-color="#FCFFFF"/>
<stop offset="0.5" stop-color="#F2FFFF"/>
<stop offset="0.6" stop-color="#E2FEFF"/>
<stop offset="0.7" stop-color="#CBFDFF"/>
<stop offset="0.78" stop-color="#AEFCFF"/>
<stop offset="0.87" stop-color="#8AFBFF"/>
<stop offset="0.95" stop-color="#5FF9FF"/>
<stop offset="1" stop-color="#40F8FF"/>
</linearGradient>
<radialGradient id="paint3_radial_3_5297" cx="0" cy="0" r="1" gradientUnits="userSpaceOnUse" gradientTransform="translate(251.211 99.2337) scale(84.1643 84.0305)">
<stop stop-color="#ECECEC"/>
<stop offset="0.47" stop-color="#F1F1F1"/>
<stop offset="1" stop-color="white"/>
</radialGradient>
<linearGradient id="paint4_linear_3_5297" x1="-3.68395" y1="344.486" x2="590.432" y2="55.2824" gradientUnits="userSpaceOnUse">
<stop stop-color="#77EDF6"/>
<stop offset="0.16" stop-color="#6BE1F0"/>
<stop offset="0.44" stop-color="#4CC0E1"/>
<stop offset="0.82" stop-color="#1A8CC8"/>
<stop offset="0.99" stop-color="#0071BB"/>
</linearGradient>
</defs>
</svg>
